<svg width="23" height="23" viewBox="0 0 23 23" fill="none" xmlns="http://www.w3.org/2000/svg">
<g id="heroicons-mini/home">
<path id="Vector 504 (Stroke)" fill-rule="evenodd" clip-rule="evenodd" d="M10.6869 2.63663C11.136 2.18753 11.8642 2.18753 12.3133 2.63663L20.3633 10.6866C20.6922 11.0155 20.7905 11.5102 20.6125 11.9399C20.4345 12.3696 20.0152 12.6498 19.5501 12.6498H18.4001V19.5498C18.4001 20.1849 17.8852 20.6998 17.2501 20.6998H14.9501C14.315 20.6998 13.8001 20.1849 13.8001 19.5498V16.0998C13.8001 15.4647 13.2852 14.9498 12.6501 14.9498H10.3501C9.71495 14.9498 9.20008 15.4647 9.20008 16.0998V19.5498C9.20008 20.1849 8.68521 20.6998 8.05008 20.6998H5.75008C5.11495 20.6998 4.60008 20.1849 4.60008 19.5498V12.6498H3.45008C2.98495 12.6498 2.56562 12.3696 2.38762 11.9399C2.20962 11.5102 2.30801 11.0155 2.63691 10.6866L10.6869 2.63663Z" fill="#4D4D4D"/>
</g>
</svg>
