<svg width="150" height="150" viewBox="0 0 150 150" fill="none" xmlns="http://www.w3.org/2000/svg">
<g id="arcticons:shopeepay">
<path id="Vector" d="M33.4469 42.0501H121.972C127.394 42.0501 132.813 47.4688 132.813 52.8876V116.125C132.813 121.544 127.394 126.966 121.972 126.966H28.0313C22.6094 126.966 17.1907 121.544 17.1907 116.122V42.0501C17.1907 33.0188 18.9969 30.3095 26.2219 30.3095L103.909 23.0813C110.231 22.722 111.138 24.8876 111.138 27.6001V42.0532" stroke="#F76B55" stroke-width="3.125" stroke-linecap="round" stroke-linejoin="round"/>
<path id="Vector_2" d="M58.8437 106.359C63.0156 109.484 67.1843 110.528 75.5218 110.528H79.6906C83.2843 110.528 86.7308 109.101 89.2719 106.559C91.813 104.018 93.2406 100.572 93.2406 96.9781C93.2406 93.3844 91.813 89.9379 89.2719 87.3968C86.7308 84.8557 83.2843 83.4281 79.6906 83.4281H70.3125C66.7188 83.4281 63.2723 82.0005 60.7312 79.4594C58.19 76.9183 56.7625 73.4718 56.7625 69.8781C56.7625 66.2844 58.19 62.8379 60.7312 60.2968C63.2723 57.7557 66.7188 56.3281 70.3125 56.3281H74.4843C83.8624 56.3281 88.0312 57.3719 91.1593 60.4969" stroke="#F76B55" stroke-width="3.125" stroke-linecap="round" stroke-linejoin="round"/>
</g>
</svg>
