<svg width="150" height="150" viewBox="0 0 150 150" fill="none" xmlns="http://www.w3.org/2000/svg">
<g id="simple-icons:shopee">
<path id="Vector" d="M99.6312 112.269C101.069 100.525 93.5062 93.0375 73.5375 86.6625C63.8625 83.3625 59.3062 79.0375 59.4125 73.0937C59.8187 66.4937 65.9625 61.6875 74.1125 61.5313C80.5314 61.5969 86.7923 63.5297 92.1312 67.0937C92.8562 67.5437 93.3625 67.4687 93.775 66.8437C94.3375 65.9437 95.7437 63.7625 96.2125 62.9687C96.5312 62.4687 96.5937 61.8063 95.7875 61.2188C94.6312 60.3625 91.3875 58.625 89.6437 57.8937C84.6791 55.7871 79.3431 54.6948 73.95 54.6812C62.0125 54.7312 52.6187 62.275 51.825 72.3437C51.3187 79.6125 54.9187 85.5125 62.6375 90.0125C64.2812 90.9625 73.1375 94.4875 76.6625 95.5875C87.75 99.0375 93.5062 105.225 92.15 112.444C90.9187 118.987 84.0312 123.219 74.5375 123.344C67.0187 123.056 60.2437 119.988 54.9937 115.906L54.1125 115.219C53.4625 114.719 52.75 114.75 52.3187 115.406C52.0062 115.888 49.9687 118.825 49.4562 119.594C48.975 120.269 49.2375 120.644 49.7375 121.056C51.925 122.887 54.8437 124.887 56.825 125.9C62.3136 128.695 68.3503 130.246 74.5062 130.444C78.9383 130.653 83.3631 129.899 87.475 128.231C94.3187 125.325 98.7437 119.519 99.6312 112.269ZM75 8.75625C62.075 8.75625 51.5375 20.9437 51.0437 36.1937H98.95C98.4437 20.9375 87.9125 8.75 75 8.75V8.75625ZM124.069 149.994L123.569 150L24.9187 149.987C18.2062 149.737 13.275 144.3 12.6 137.544L12.5375 136.325L8.11873 39.2875C8.08885 38.8975 8.13905 38.5055 8.26624 38.1356C8.39343 37.7656 8.59492 37.4257 8.85834 37.1365C9.12176 36.8473 9.44153 36.6151 9.79801 36.454C10.1545 36.293 10.5401 36.2065 10.9312 36.2H42.025C42.7812 16.05 57.25 0 75 0C92.7375 0 107.206 16.0563 107.969 36.1875H139.019C139.408 36.1878 139.793 36.2673 140.15 36.4211C140.508 36.575 140.83 36.7999 141.098 37.0823C141.366 37.3647 141.573 37.6986 141.708 38.0638C141.843 38.4289 141.902 38.8176 141.881 39.2062L137.05 136.631L137.006 137.45C136.419 144.288 130.887 149.806 124.069 149.987V149.994Z" fill="#F76B55"/>
</g>
</svg>
