<svg width="150" height="150" viewBox="0 0 150 150" fill="none" xmlns="http://www.w3.org/2000/svg">
<g id="tabler:brand-shopee">
<g id="Group">
<path id="Vector" d="M53.125 43.75C53.125 33.4188 62.5 18.75 75 18.75C87.5 18.75 96.875 33.4188 96.875 43.75M25 43.75L30.4188 119.644C30.6451 122.802 32.0613 125.756 34.3815 127.91C36.7016 130.065 39.7527 131.258 42.9188 131.25H107.144C110.31 131.258 113.361 130.065 115.681 127.91C118.001 125.756 119.417 122.802 119.644 119.644L125.063 43.75H25.0625H25Z" stroke="#F76B55" stroke-width="12.5" stroke-linecap="round" stroke-linejoin="round"/>
<path id="Vector_2" d="M59.375 106.25C61.9562 109.138 65.625 112.5 75 112.5C84.375 112.5 90.625 106.894 90.625 100C90.625 93.1062 84.375 90.625 75 87.5C65.625 84.375 62.5 78.3125 62.5 75C62.5 68.1 68.75 62.5 75 62.5C81.25 62.5 84.375 62.5 90.625 68.75" stroke="#F76B55" stroke-width="12.5" stroke-linecap="round" stroke-linejoin="round"/>
</g>
</g>
</svg>
